<svg xmlns="http://www.w3.org/2000/svg" fill="none" viewBox="0 0 596 434">
  <path fill="#CA2024" d="M281.861 356.547c0-1.97 1.272-2.77 2.775-2.77h10.487c9.216 0 13.643 3.71 13.643 11.08 0 7.75-5.409 11.27-13.402 11.27h-4.327v8.59c0 2.44-1.273 2.77-2.775 2.77h-3.626c-1.503 0-2.775-.33-2.775-2.77v-28.18.01Zm13.783 12.4c2.164 0 3.947-1.13 3.947-4.09 0-2.3-1.643-3.62-4.047-3.62h-4.517v7.7h4.607l.01.01Zm17.039-12.4c0-1.97 1.272-2.77 2.775-2.77h10.207c9.175 0 13.783 3.43 13.783 10.19 0 4.18-2.024 7.09-5.129 8.73l5.55 12.26c.891 1.97-.281 2.54-1.603 2.54h-4.989c-1.642 0-2.544-.61-3.335-2.58l-3.806-9.58h-4.278v9.39c0 1.97-1.272 2.77-2.774 2.77h-3.626c-1.503 0-2.775-.8-2.775-2.77v-28.18Zm12.841 11.65c1.884 0 4.658-.42 4.658-3.52s-2.404-3.43-4.237-3.43h-4.097v6.95h3.676Zm17.39 2.44c0-7.51 3.295-17.42 15.195-17.42s15.196 9.91 15.196 17.42c0 10.14-5.079 17.42-15.196 17.42s-15.195-7.28-15.195-17.42Zm21.205 0c0-6.53-1.743-10.43-6.02-10.43-4.277 0-6.02 3.9-6.02 10.43 0 6.53 1.643 10.24 6.02 10.24s6.02-3.8 6.02-10.24Zm13.984-14.09c0-1.97 1.272-2.77 2.774-2.77h9.266c10.768 0 16.698 5.31 16.698 16.25 0 10.94-6.261 17.47-17.079 17.47h-8.895c-1.502 0-2.774-.8-2.774-2.77v-28.18h.01Zm12.09 23.11c5.179 0 7.483-3.62 7.483-9.35 0-5.73-2.304-8.69-7.152-8.69h-3.246v18.03h2.915v.01Zm21.135-23.11c0-2.44 1.273-2.77 2.775-2.77h3.666c1.503 0 2.775.33 2.775 2.77v18.5c0 3.62 1.643 5.59 4.988 5.59 3.346 0 5.359-1.97 5.359-5.59v-18.5c0-2.44 1.272-2.77 2.775-2.77h3.626c1.503 0 2.775.33 2.775 2.77v16.72c0 9.44-4.328 14.79-14.725 14.79-10.397 0-14.014-5.35-14.014-14.79v-16.72Zm33.226 13.67c0-10.94 5.97-17 15.196-17 6.541 0 10.768 2.44 12.701 7.8.471 1.36.561 2.77-1.833 3.15l-3.386.56c-2.213.38-2.584-.66-3.526-2.11-.991-1.6-2.444-2.16-4.137-2.16-3.626 0-5.829 3.19-5.829 9.77 0 7.37 2.073 10.42 5.689 10.42 1.643 0 3.246-.66 4.418-2.49.891-1.46 1.312-2.49 3.435-2.02l3.717.85c2.303.52 2.213 1.88 1.642 3.24-2.915 6.53-7.953 7.84-13.502 7.84-9.035 0-14.585-6.39-14.585-17.84v-.01Zm39.406-8.97h-5.689c-2.444 0-2.775-1.27-2.775-2.77v-1.93c0-1.5.331-2.77 2.775-2.77h20.554c2.444 0 2.775 1.27 2.775 2.77v1.93c0 1.5-.331 2.77-2.775 2.77h-5.689v23.48c0 2.44-1.272 2.77-2.775 2.77h-3.626c-1.503 0-2.775-.38-2.775-2.77v-23.48Zm21.296-4.7c0-1.97 1.272-2.77 2.775-2.77h18.16c2.444 0 2.775 1.27 2.775 2.77v1.93c0 1.5-.331 2.77-2.775 2.77h-11.76v5.4h7.523c2.444 0 2.775 1.27 2.775 2.77v1.69c0 1.5-.331 2.77-2.775 2.77h-7.523v6.15h12.041c2.494 0 2.774 1.27 2.774 2.77v1.93c0 1.5-.33 2.77-2.774 2.77h-18.441c-1.503 0-2.775-.8-2.775-2.77v-28.18Zm27.847 0c0-2.44 1.272-2.77 2.774-2.77h3.667c1.502 0 2.774.33 2.774 2.77v18.5c0 3.62 1.643 5.59 4.989 5.59 3.345 0 5.359-1.97 5.359-5.59v-18.5c0-2.44 1.272-2.77 2.774-2.77h3.626c1.503 0 2.775.33 2.775 2.77v16.72c0 9.44-4.327 14.79-14.725 14.79-10.397 0-14.013-5.35-14.013-14.79v-16.72Zm34.768 0c0-1.97 1.272-2.77 2.775-2.77h10.207c9.175 0 13.783 3.43 13.783 10.19 0 4.18-2.023 7.09-5.129 8.73l5.55 12.26c.891 1.97-.281 2.54-1.603 2.54h-4.988c-1.643 0-2.545-.61-3.336-2.58l-3.806-9.58h-4.278v9.39c0 1.97-1.272 2.77-2.774 2.77h-3.626c-1.503 0-2.775-.8-2.775-2.77v-28.18Zm12.842 11.65c1.883 0 4.657-.42 4.657-3.52s-2.394-3.43-4.237-3.43h-4.097v6.95h3.677Zm-300.264 46.53c0-10.94 5.97-17 15.195-17 6.541 0 10.768 2.44 12.702 7.8.47 1.36.561 2.77-1.833 3.15l-3.386.56c-2.214.38-2.584-.66-3.526-2.11-.992-1.6-2.444-2.16-4.137-2.16-3.626 0-5.83 3.19-5.83 9.77 0 7.37 2.074 10.42 5.69 10.42 1.643 0 3.245-.66 4.417-2.49.892-1.46 1.312-2.49 3.436-2.02l3.716.85c2.304.52 2.214 1.88 1.643 3.24-2.915 6.53-7.953 7.84-13.503 7.84-9.035 0-14.584-6.39-14.584-17.84v-.01Zm38.915-13.76c.561-1.97 1.933-2.68 3.526-2.68h6.541c1.603 0 2.965.7 3.526 2.68l8.184 28.36c.611 2.16-.661 2.68-2.024 2.68h-4.467c-1.603 0-2.444-.7-2.965-2.72l-1.132-4.6h-9.125l-1.082 4.6c-.471 2.02-1.363 2.72-2.965 2.72h-4.187c-1.362 0-2.635-.52-2.024-2.68l8.184-28.36h.01Zm9.406 16.29-2.725-11.46h-.09l-2.774 11.46h5.599-.01Zm16.217-16.2c0-1.97 1.272-2.77 2.775-2.77h5.178c1.643 0 2.825.99 3.627 2.44l8.744 16.06h.09v-15.73c0-2.44 1.273-2.77 2.775-2.77h2.965c1.503 0 2.775.33 2.775 2.77v28.18c0 2.44-1.272 2.77-2.775 2.77h-3.997c-1.642 0-2.864-.94-3.666-2.44l-9.876-17.28h-.091v16.95c0 2.44-1.272 2.77-2.774 2.77h-2.965c-1.503 0-2.775-.33-2.775-2.77v-28.18h-.01Zm40.959-.09c.561-1.97 1.933-2.68 3.526-2.68h6.541c1.602 0 2.965.7 3.526 2.68l8.183 28.36c.611 2.16-.661 2.68-2.023 2.68h-4.467c-1.603 0-2.445-.7-2.965-2.72l-1.132-4.6h-9.126l-1.082 4.6c-.47 2.02-1.362 2.72-2.964 2.72h-4.187c-1.363 0-2.635-.52-2.024-2.68l8.184-28.36h.01Zm9.406 16.29-2.725-11.46h-.09l-2.775 11.46h5.6-.01Zm16.217-16.2c0-1.97 1.272-2.77 2.774-2.77h9.266c10.768 0 16.698 5.31 16.698 16.25 0 10.94-6.26 17.47-17.079 17.47h-8.895c-1.502 0-2.774-.8-2.774-2.77v-28.18h.01Zm12.09 23.11c5.179 0 7.483-3.62 7.483-9.35 0-5.73-2.304-8.69-7.152-8.69h-3.246v18.03h2.915v.01Zm21.456-23.11c0-2.44 1.272-2.77 2.775-2.77h3.626c1.502 0 2.775.33 2.775 2.77v28.18c0 2.44-1.273 2.77-2.775 2.77h-3.626c-1.503 0-2.775-.33-2.775-2.77v-28.18Zm15.366 0c0-1.97 1.272-2.77 2.775-2.77h18.16c2.444 0 2.775 1.27 2.775 2.77v1.93c0 1.5-.331 2.77-2.775 2.77h-11.76v5.4h7.523c2.444 0 2.775 1.27 2.775 2.77v1.69c0 1.5-.331 2.77-2.775 2.77h-7.523v6.15h12.04c2.495 0 2.775 1.27 2.775 2.77v1.93c0 1.5-.33 2.77-2.775 2.77h-18.44c-1.503 0-2.775-.8-2.775-2.77v-28.18Zm28.528 0c0-1.97 1.272-2.77 2.774-2.77h5.179c1.643 0 2.825.99 3.626 2.44l8.745 16.06h.09v-15.73c0-2.44 1.272-2.77 2.775-2.77h2.965c1.502 0 2.774.33 2.774 2.77v28.18c0 2.44-1.272 2.77-2.774 2.77h-3.997c-1.643 0-2.865-.94-3.666-2.44l-9.877-17.28h-.09v16.95c0 2.44-1.272 2.77-2.775 2.77h-2.965c-1.502 0-2.774-.33-2.774-2.77v-28.18h-.01Zm-206.787-77.34c0-1.23.791-1.73 1.733-1.73h11.319c1.522 0 1.733.79 1.733 1.73v1.2c0 .94-.211 1.73-1.733 1.73h-7.333v3.37h4.688c1.523 0 1.733.79 1.733 1.73v1.05c0 .94-.2 1.73-1.733 1.73h-4.688v3.83h7.503c1.553 0 1.733.79 1.733 1.73v1.2c0 .94-.2 1.73-1.733 1.73h-11.489c-.942 0-1.733-.5-1.733-1.73v-17.57Zm6.471-4.6.971-1.38c.732-1.05 1.112-1.4 2.174-1.4h2.374c.611 0 1.172.53.441 1.17l-2.084 1.84c-.791.7-1.082 1.17-2.143 1.17h-1.022c-.731 0-1.553-.21-.701-1.4h-.01Zm10.998 4.6c0-1.52.792-1.73 1.733-1.73h2.254c.941 0 1.733.2 1.733 1.73v14.63h6.711c1.523 0 1.733.79 1.733 1.73v1.2c0 .94-.21 1.73-1.733 1.73h-10.698c-.941 0-1.733-.5-1.733-1.73v-17.56Zm16.328 0c0-1.23.791-1.73 1.732-1.73h11.319c1.523 0 1.733.79 1.733 1.73v1.2c0 .94-.21 1.73-1.733 1.73h-7.332v3.37h4.688c1.523 0 1.733.79 1.733 1.73v1.05c0 .94-.2 1.73-1.733 1.73h-4.688v3.83h7.503c1.552 0 1.733.79 1.733 1.73v1.2c0 .94-.201 1.73-1.733 1.73h-11.49c-.941 0-1.732-.5-1.732-1.73v-17.57Zm16.207-.06c-.411-1.38.38-1.67 1.232-1.67h3.135c1.002 0 1.553.44 1.843 1.7l2.995 12.76h.06l3.576-12.79c.351-1.23.912-1.67 1.904-1.67h2.934c.852 0 1.643.29 1.202 1.67l-5.719 17.68c-.501 1.52-1.232 1.67-2.254 1.67h-3.426c-1.001 0-1.793-.18-2.223-1.67l-5.249-17.68h-.01Zm21.175.06c0-1.23.792-1.73 1.733-1.73h11.319c1.523 0 1.733.79 1.733 1.73v1.2c0 .94-.2 1.73-1.733 1.73h-7.332v3.37h4.688c1.522 0 1.733.79 1.733 1.73v1.05c0 .94-.201 1.73-1.733 1.73h-4.688v3.83h7.502c1.553 0 1.733.79 1.733 1.73v1.2c0 .94-.2 1.73-1.733 1.73h-11.489c-.941 0-1.733-.5-1.733-1.73v-17.57Zm6.471-4.6.972-1.38c.731-1.05 1.112-1.4 2.173-1.4h2.374c.611 0 1.172.53.441 1.17l-2.083 1.84c-.792.7-1.082 1.17-2.144 1.17h-1.022c-.731 0-1.552-.21-.701-1.4h-.01Zm18.271 4.6c0-1.23.791-1.73 1.733-1.73h6.541c5.749 0 8.504 2.31 8.504 6.91 0 4.83-3.376 7.02-8.354 7.02h-2.695v5.36c0 1.52-.791 1.73-1.733 1.73h-2.253c-.942 0-1.733-.21-1.733-1.73v-17.56h-.01Zm8.584 7.73c1.352 0 2.464-.7 2.464-2.55 0-1.43-1.021-2.25-2.524-2.25h-2.815v4.8h2.875Zm13.252-7.79c.351-1.23 1.202-1.67 2.204-1.67h4.077c1.002 0 1.843.44 2.204 1.67l5.098 17.68c.381 1.35-.41 1.67-1.262 1.67h-2.785c-1.001 0-1.522-.44-1.843-1.7l-.701-2.87h-5.689l-.671 2.87c-.291 1.26-.852 1.7-1.844 1.7h-2.604c-.851 0-1.643-.32-1.262-1.67l5.098-17.68h-.02Zm5.86 10.16-1.703-7.14h-.06l-1.733 7.14h3.496Zm10.057-10.1c0-1.23.791-1.73 1.733-1.73h6.361c5.719 0 8.594 2.14 8.594 6.35 0 2.61-1.262 4.42-3.195 5.44l3.456 7.64c.561 1.23-.181 1.58-1.002 1.58h-3.105c-1.022 0-1.583-.38-2.084-1.61l-2.374-5.97h-2.664v5.85c0 1.23-.792 1.73-1.733 1.73h-2.254c-.942 0-1.733-.5-1.733-1.73v-17.56.01Zm8.004 7.26c1.172 0 2.904-.26 2.904-2.2 0-1.94-1.492-2.14-2.634-2.14h-2.554v4.33h2.284v.01Zm18.821-7.26c0-1.52.791-1.73 1.733-1.73h2.284c.941 0 1.733.2 1.733 1.73v11.53c0 2.25 1.022 3.48 3.105 3.48 2.084 0 3.346-1.23 3.346-3.48v-11.53c0-1.52.791-1.73 1.733-1.73h2.253c.942 0 1.733.2 1.733 1.73v10.42c0 5.88-2.694 9.22-9.175 9.22-6.481 0-8.735-3.34-8.735-9.22v-10.42h-.01Zm21.376 0c0-1.23.791-1.73 1.733-1.73h3.225c1.022 0 1.763.61 2.254 1.52l5.449 10.01h.06v-9.81c0-1.52.792-1.73 1.733-1.73h1.843c.942 0 1.733.2 1.733 1.73v17.56c0 1.52-.791 1.73-1.733 1.73H477.9c-1.022 0-1.793-.59-2.284-1.52l-6.16-10.77h-.06v10.57c0 1.52-.791 1.73-1.733 1.73h-1.843c-.942 0-1.733-.21-1.733-1.73v-17.56h.01ZM1 370.217c0-10.94 5.97-17 15.195-17 6.541 0 10.769 2.44 12.702 7.8.47 1.36.56 2.77-1.833 3.15l-3.386.56c-2.214.38-2.584-.66-3.526-2.11-.992-1.6-2.444-2.16-4.137-2.16-3.626 0-5.83 3.19-5.83 9.77 0 7.37 2.074 10.42 5.69 10.42 1.643 0 3.245-.66 4.417-2.49.892-1.46 1.313-2.49 3.436-2.02l3.716.85c2.304.52 2.214 1.88 1.643 3.24-2.915 6.53-7.953 7.84-13.502 7.84-9.036 0-14.585-6.39-14.585-17.84v-.01Zm38.905-13.76c.561-1.97 1.934-2.68 3.526-2.68h6.541c1.603 0 2.965.7 3.526 2.68l8.184 28.36c.61 2.16-.661 2.68-2.024 2.68h-4.467c-1.603 0-2.444-.7-2.965-2.72l-1.132-4.6H41.97l-1.082 4.6c-.47 2.02-1.362 2.72-2.965 2.72h-4.187c-1.362 0-2.634-.52-2.023-2.68l8.183-28.36h.01Zm9.416 16.29-2.724-11.46h-.09l-2.775 11.46h5.6-.01Zm16.217-16.2c0-1.97 1.272-2.77 2.775-2.77h5.179c1.642 0 2.824.99 3.626 2.44l8.744 16.06h.09v-15.73c0-2.44 1.273-2.77 2.775-2.77h2.965c1.503 0 2.775.33 2.775 2.77v28.18c0 2.44-1.272 2.77-2.775 2.77h-3.996c-1.643 0-2.865-.94-3.667-2.44l-9.876-17.28h-.09v16.95c0 2.44-1.273 2.77-2.775 2.77h-2.965c-1.503 0-2.775-.33-2.775-2.77v-28.18h-.01Zm40.959-.09c.561-1.97 1.933-2.68 3.526-2.68h6.541c1.603 0 2.965.7 3.526 2.68l8.184 28.36c.611 2.16-.662 2.68-2.024 2.68h-4.467c-1.603 0-2.444-.7-2.965-2.72l-1.132-4.6h-9.126l-1.081 4.6c-.471 2.02-1.363 2.72-2.965 2.72h-4.187c-1.363 0-2.635-.52-2.024-2.68l8.184-28.36h.01Zm9.406 16.29-2.725-11.46h-.09l-2.775 11.46h5.6-.01Zm16.217-16.2c0-1.97 1.272-2.77 2.775-2.77h9.265c10.768 0 16.698 5.31 16.698 16.25 0 10.94-6.26 17.47-17.078 17.47h-8.895c-1.503 0-2.775-.8-2.775-2.77v-28.18h.01Zm12.08 23.11c5.179 0 7.483-3.62 7.483-9.35 0-5.73-2.304-8.69-7.152-8.69h-3.246v18.03h2.915v.01Zm21.456-23.11c0-2.44 1.272-2.77 2.775-2.77h3.626c1.503 0 2.775.33 2.775 2.77v28.18c0 2.44-1.272 2.77-2.775 2.77h-3.626c-1.503 0-2.775-.33-2.775-2.77v-28.18Zm21.136-.09c.561-1.97 1.933-2.68 3.526-2.68h6.541c1.602 0 2.965.7 3.526 2.68l8.183 28.36c.611 2.16-.661 2.68-2.023 2.68h-4.468c-1.602 0-2.444-.7-2.965-2.72l-1.132-4.6h-9.125l-1.082 4.6c-.47 2.02-1.362 2.72-2.965 2.72h-4.187c-1.362 0-2.634-.52-2.023-2.68l8.184-28.36h.01Zm9.405 16.29-2.724-11.46h-.09l-2.775 11.46h5.599-.01Zm16.218-16.2c0-1.97 1.272-2.77 2.774-2.77h5.179c1.643 0 2.825.99 3.626 2.44l8.745 16.06h.09v-15.73c0-2.44 1.272-2.77 2.775-2.77h2.965c1.502 0 2.774.33 2.774 2.77v28.18c0 2.44-1.272 2.77-2.774 2.77h-3.997c-1.643 0-2.865-.94-3.666-2.44l-9.877-17.28h-.09v16.95c0 2.44-1.272 2.77-2.775 2.77h-2.965c-1.502 0-2.774-.33-2.774-2.77v-28.18h-.01Zm-155.191 44.51c0-1.97 1.273-2.77 2.775-2.77H78.58c2.444 0 2.775 1.27 2.775 2.77v1.93c0 1.5-.33 2.77-2.775 2.77H66.4v5.4h7.953c2.444 0 2.775 1.27 2.775 2.77v1.69c0 1.5-.33 2.77-2.775 2.77H66.4v10.85c0 2.44-1.272 2.77-2.775 2.77H60c-1.503 0-2.775-.33-2.775-2.77v-28.18Zm31.173-.09c.56-1.97 1.933-2.68 3.526-2.68h6.54c1.603 0 2.965.7 3.526 2.68l8.184 28.36c.611 2.16-.661 2.68-2.023 2.68h-4.468c-1.602 0-2.444-.7-2.965-2.72l-1.132-4.6H90.46l-1.082 4.6c-.47 2.02-1.362 2.72-2.965 2.72h-4.187c-1.362 0-2.634-.52-2.023-2.68l8.184-28.36h.01Zm9.405 16.29-2.724-11.46h-.09l-2.775 11.46h5.6-.01Zm16.218-16.2c0-1.97 1.272-2.77 2.774-2.77h10.207c9.176 0 13.784 3.43 13.784 10.19 0 4.18-2.024 7.09-5.129 8.73l5.549 12.26c.892 1.97-.28 2.54-1.602 2.54h-4.989c-1.643 0-2.544-.61-3.335-2.58l-3.807-9.58h-4.277v9.39c0 1.97-1.272 2.77-2.775 2.77h-3.626c-1.502 0-2.774-.8-2.774-2.77v-28.18Zm12.841 11.65c1.883 0 4.658-.42 4.658-3.52s-2.404-3.43-4.237-3.43h-4.097v6.95h3.676Zm19.132-11.65c0-1.97 1.272-2.77 2.775-2.77h6.821c1.603 0 2.495.7 3.015 2.68l5.129 19.39h.09l5.359-19.39c.561-1.97 1.463-2.68 3.055-2.68h6.682c1.502 0 2.774.8 2.774 2.77v28.18c0 2.44-1.272 2.77-2.774 2.77h-2.915c-1.503 0-2.775-.33-2.775-2.77v-18.55h-.09l-4.888 18.64c-.521 1.97-1.413 2.68-3.015 2.68h-2.775c-1.603 0-2.494-.7-3.015-2.68l-4.888-18.64h-.09v18.55c0 2.44-1.273 2.77-2.775 2.77h-2.915c-1.503 0-2.775-.33-2.775-2.77v-28.18h-.01Zm40.999 0c0-1.97 1.272-2.77 2.775-2.77h18.16c2.444 0 2.775 1.27 2.775 2.77v1.93c0 1.5-.331 2.77-2.775 2.77h-11.76v5.4h7.523c2.444 0 2.775 1.27 2.775 2.77v1.69c0 1.5-.331 2.77-2.775 2.77h-7.523v6.15h12.041c2.494 0 2.774 1.27 2.774 2.77v1.93c0 1.5-.33 2.77-2.774 2.77h-18.441c-1.503 0-2.775-.8-2.775-2.77v-28.18Zm28.528 0c0-1.97 1.272-2.77 2.775-2.77h10.207c9.175 0 13.783 3.43 13.783 10.19 0 4.18-2.024 7.09-5.129 8.73l5.55 12.26c.891 1.97-.281 2.54-1.603 2.54h-4.989c-1.642 0-2.544-.61-3.335-2.58l-3.807-9.58h-4.277v9.39c0 1.97-1.272 2.77-2.774 2.77h-3.626c-1.503 0-2.775-.8-2.775-2.77v-28.18Zm12.841 11.65c1.884 0 4.658-.42 4.658-3.52s-2.404-3.43-4.237-3.43h-4.097v6.95h3.676Zm-162.923-88.99c0-1.23.791-1.73 1.733-1.73h6.36c5.72 0 8.595 2.14 8.595 6.35 0 2.61-1.262 4.42-3.195 5.44l3.456 7.64c.56 1.23-.18 1.58-1.002 1.58H78.28c-1.022 0-1.583-.38-2.084-1.61l-2.374-5.97h-2.664v5.85c0 1.23-.792 1.73-1.733 1.73H67.17c-.942 0-1.733-.5-1.733-1.73v-17.56.01Zm8.004 7.26c1.172 0 2.904-.26 2.904-2.2 0-1.94-1.492-2.14-2.634-2.14h-2.554v4.33h2.284v.01Zm15.536-7.32c.35-1.23 1.202-1.67 2.203-1.67h4.077c1.002 0 1.843.44 2.204 1.67l5.098 17.68c.381 1.35-.41 1.67-1.262 1.67h-2.784c-1.002 0-1.523-.44-1.843-1.7l-.702-2.87h-5.69l-.67 2.87c-.29 1.26-.852 1.7-1.843 1.7H85.16c-.851 0-1.642-.32-1.262-1.67l5.099-17.68h-.02Zm5.86 10.16-1.703-7.14h-.06l-1.733 7.14h3.495Zm10.056-10.1c0-1.52.792-1.73 1.733-1.73h2.254c.942 0 1.733.2 1.733 1.73v17.56c0 1.52-.791 1.73-1.733 1.73h-2.254c-.941 0-1.733-.21-1.733-1.73v-17.56Zm9.847 13.4 2.143-.67c1.553-.5 1.583.26 2.224 1.14.611.85 1.583 1.35 2.905 1.35 1.523 0 2.725-.61 2.725-1.87 0-3.78-10.969-1.14-10.969-9.43 0-3.51 3.226-6 7.623-6 3.376 0 5.83.97 7.392 3.45.471.76.641 1.61-.731 2.08l-1.582.56c-1.583.56-1.763-.09-2.585-.88-.611-.61-1.402-.91-2.344-.91-1.172 0-2.173.64-2.173 1.67 0 3.57 10.667 1.02 10.667 9.01 0 4.39-3.455 6.73-8.414 6.73-3.606 0-6.3-1.11-7.803-4.16-.38-.82-.38-1.67.912-2.08l.01.01Zm18.12-13.4c0-1.23.792-1.73 1.733-1.73h11.319c1.523 0 1.733.79 1.733 1.73v1.2c0 .94-.21 1.73-1.733 1.73h-7.332v3.37h4.688c1.522 0 1.733.79 1.733 1.73v1.05c0 .94-.201 1.73-1.733 1.73h-4.688v3.83h7.502c1.553 0 1.733.79 1.733 1.73v1.2c0 .94-.2 1.73-1.733 1.73h-11.489c-.941 0-1.733-.5-1.733-1.73v-17.57Zm17.47 0c0-1.23.791-1.73 1.732-1.73h5.78c6.711 0 10.408 3.31 10.408 10.13s-3.897 10.89-10.638 10.89h-5.54c-.941 0-1.732-.5-1.732-1.73v-17.56h-.01Zm7.542 14.4c3.226 0 4.658-2.25 4.658-5.82 0-3.57-1.432-5.42-4.457-5.42h-2.024v11.24h1.823Zm20.394-14.4c0-1.23.792-1.73 1.733-1.73h5.92c6.131 0 8.675 1.87 8.675 5.33 0 1.99-1.052 3.72-3.226 4.57v.06c2.284.67 3.897 1.96 3.897 4.92 0 4.86-4.397 6.15-9.266 6.15h-6.01c-.941 0-1.733-.5-1.733-1.73v-17.56l.01-.01Zm7.984 6.47c1.382 0 2.614-.47 2.614-1.99 0-1.35-1.172-1.64-2.784-1.64h-2.224v3.63h2.404-.01Zm-.06 8.28c2.634 0 3.375-.91 3.375-2.17 0-1.7-1.492-2.05-3.135-2.05h-2.584v4.21h2.344v.01Zm15.946-3.37-5.919-11.56c-.591-1.17.15-1.55.941-1.55h2.875c1.022 0 1.613.41 2.174 1.58l2.814 5.97h.06l2.995-6c.591-1.17 1.172-1.55 2.204-1.55h2.725c.791 0 1.552.38.941 1.55l-6.04 11.56v6.18c0 1.52-.791 1.73-1.733 1.73h-2.284c-.941 0-1.733-.21-1.733-1.73v-6.18h-.02Zm25.002-11.44c.351-1.23 1.202-1.67 2.204-1.67h4.077c1.002 0 1.843.44 2.204 1.67l5.098 17.68c.381 1.35-.41 1.67-1.262 1.67h-2.785c-1.001 0-1.522-.44-1.843-1.7l-.701-2.87h-5.689l-.672 2.87c-.29 1.26-.851 1.7-1.843 1.7h-2.614c-.851 0-1.643-.32-1.262-1.67l5.098-17.68h-.01Zm5.87 10.16-1.703-7.14h-.06l-1.733 7.14h3.496Zm31.062 98.66c0 1.09-.601 1.23-1.302 1.23h-1.703c-.711 0-1.302-.15-1.302-1.23v-109.26c0-1.09.601-1.23 1.302-1.23h1.703c.711 0 1.302.15 1.302 1.23v109.26Z"/>
  <path fill="#CA2024" fill-rule="evenodd" d="M387.208 34.297s-4.407-1.95-4.017-5.98c.381-4.04.341-18.24-1.753-17.35-3.055 1.32-6.711 4.33-7.232-.81-.541-5.14-3.275-8.46-6.601-5.72-3.325 2.75-3.826 2.7-6.711.9-2.895-1.8-4.989-6.58-5.83-3.1-.851 3.48-2.424 7.73-5.339 5.7-1.973-1.38-6.591 3.21-2.875 7.12 3.707 3.91 2.294 6.48-5.399 12.37-7.703 5.89-23.82 35.93-38.815 59.46-14.995 23.53-17.059 23.85-35.81 22.58-18.761-1.26-29.439-6.86-38.915-19.98-9.466-13.12-26.855-66.2-32.565-65.21-5.709.99-8.925 2.72-11.89 7.02-2.965 4.3-1.713 1.88-9.316 6.76-7.602 4.88-5.248 1.54-10.397 12.76-5.139 11.22-8.003 3.83-11.279 16.76-3.265 12.93-5.028 15.31-6.711 22.28-1.683 6.97 10.217 21.33 10.427 24.42.211 3.07-3.626 11.36-2.604 16.56 1.042 5.19 1.713 8.82 1.913 17.49.191 8.68 11.96 8.26 15.306 10.61 3.356 2.36 4.417 12.64 6.461 17.93 2.043 5.29 14.835 15.66 21.576 19.87 6.741 4.2 12.571 17.99 21.266 28.5 8.694 10.49 17.91 15.44 20.714 18.25 2.785 2.81-.26 18.82-.26 18.82s-4.187 1.13-1.082 6.01c3.105 4.88 11.87 7.65 6.331 20.48-3.186 7.36-4.157 13.81-2.014 14.56 2.915 1.02 2.745-7.38 7.212-11.54 4.478-4.16 17.941-.86 26.004 5.51 8.064 6.36 9.646 9.26 7.393 2.74-2.264-6.52-15.386-15.21-15.386-15.21s17.098-5.82 24.481-5.32c7.302.49.38-4.04-14.885-4.46-15.266-.42-21.667-8.16-22.939-10.83-1.282-2.67 14.435-1.69 21.887.54 7.433 2.23 19.813 11.55 19.092 8.42-.721-3.12-7.733-11.07-7.733-11.07s11.319.2 20.414 1.07c9.106.86 9.126.51 4.278-2.15-6.612-3.63-31.163-5.77-27.777-8.22 3.686-2.69 8.224-4.01 5.73-4.71-1.233-.34-13.503 6-14.164-3.23-.651-9.22-4.708-20.3 5.649-21.87 10.348-1.57 43.083-13.23 63.266-37.8 20.184-24.56 13.483-61.35 11.139-74.3-2.334-12.95 4.347-40.33 4.347-40.33l5.419 2.04c5.42 2.04 12.271-.36 13.904-6.83 1.633-6.46-3.356-16.39 1.763-19.37 5.649-3.31 15.015-1.19 15.105-2.45.241-3.11-10.808-9.68-10.808-9.68l.03-.01Zm-132.442 222.18s-.832-15.67 4.157-25.59c4.988-9.92 6.911-5.7 8.935 9.5 2.023 15.21-13.092 16.09-13.092 16.09Z" clip-rule="evenodd"/>
  <path fill="#fff" fill-rule="evenodd" d="M313.985 176.187c-26.845.25-14.825-9.04-7.452-18.66-8.715 1.13-8.855-5.21-6.642-10.91 0 0-2.624-3.95-2.003-10.65 0 0-9.175 10.76-15.276 8.02-11.318 28.65-11.028.7-12.44-5.17-4.758 7.09-10.067-4.67-10.218-5.53-3.195 4.29-9.105-7.16-9.225-7.37l-.621 12.77c-.741 4.33-.11 6.76-5.259 5.55 3.586 9.8 10.107 26.7-9.295 10.39 0 0-2.725 2.53-12.401.84 2.334 2.09 16.387 15.91 2.704 18.09l9.436 7.2c3.746 4.37-1.542 7.9-9.235 12.11 8.113.25 6.29 2.68 16.087 3.72 9.375.06 7.973 5.69 8.283 9.24l8.304-4.11c5.129-2.59 6.782-4.03 8.194-6 1.593 7.95.1 14.1-.691 16.57l1.963 2.26c.161-.36 3.516-8.05 1.343-19.13 4.647 4.47 21.355 6.1 21.466 6.23-9.026-9.58 9.546-12.61 11.96-13.39-3.356-4.13 10.437-11.68 11.018-12.08v.01Z" clip-rule="evenodd"/>
</svg>
